# File created by Blade
# Date/Time:  Wed Jan 21 16:20:01 2015
# Frame Rate: 120.000 fps
#------------------------------------------------------
:FULLY-SPECIFIED
:DEGREES
1047
root 19.061505 35.554064 -21.808030 -175.805109 1.213152 -176.387725
Spine -14.278949 -1.816384 4.789188
Head 9.445725 1.619146 0.346298
LeftShoulder -15.051218 -32.186448 19.919352
LeftArm 2.058109 2.697195 -8.477994
LeftForeArm 10.162792 -0.000000 -3.096028
LeftHand -9.736369 0.000000 -4.569356
LeftHandThumb1 -26.253704 0.000000 33.147579
RightShoulder -13.285442 -3.549797 -9.203092
RightArm 6.057111 38.945674 12.993739
RightForeArm -35.569245 0.000000 4.439467
RightHand -7.574684 0.000000 7.626673
RightHandThumb1 -24.326973 -0.000000 -32.862282
LeftUpLeg 5.748485 2.889828 6.573906
LeftLeg -12.493812 -0.000000 0.000000
LeftFoot 0.693881 23.665468 7.060584
LeftToeBase -143.695403 -0.000000 0.000000
RightUpLeg 1.659285 -9.795284 2.653001
RightLeg -2.315768 -0.000000 0.000000
RightFoot -19.807390 -23.474848 17.595673
RightToeBase 22.297288 -0.000000 -0.000000
1048
root 19.057525 35.553391 -21.817345 -175.806315 1.182683 -176.393143
Spine -14.317623 -1.798152 4.760173
Head 9.489047 1.559045 0.358924
LeftShoulder -15.055909 -32.188289 19.931602
LeftArm 2.136007 2.747486 -8.456411
LeftForeArm 10.170440 -0.000000 -3.053159
LeftHand -9.797925 0.000000 -4.411875
LeftHandThumb1 -26.253704 0.000000 33.147579
RightShoulder -13.299383 -3.547445 -9.232864
RightArm 6.086213 38.936624 12.926458
RightForeArm -35.501206 -0.000000 4.476522
RightHand -7.664304 -0.000000 7.617817
RightHandThumb1 -24.326973 -0.000000 -32.862282
LeftUpLeg 5.756005 2.900357 6.565393
LeftLeg -12.488580 -0.000000 0.000000
LeftFoot 0.680688 23.624697 7.082354
LeftToeBase -143.681413 -0.000000 0.000000
RightUpLeg 1.682152 -9.862203 2.633986
RightLeg -2.319035 -0.000000 0.000000
RightFoot -19.816436 -23.388308 17.703990
RightToeBase 22.134218 -0.000000 -0.000000
1049
root 19.054401 35.552548 -21.825186 -175.797383 1.140646 -176.403029
Spine -14.363135 -1.794069 4.728859
Head 9.523011 1.508683 0.372424
LeftShoulder -15.068685 -32.195374 19.934972
LeftArm 2.241309 2.810980 -8.425656
LeftForeArm 10.114038 -0.000000 -3.042472
LeftHand -9.767859 -0.000000 -4.482167
LeftHandThumb1 -26.253704 0.000000 33.147579
RightShoulder -13.331071 -3.573905 -9.254427
RightArm 6.179659 38.913946 12.879529
RightForeArm -35.594093 0.000000 4.461602
RightHand -7.630974 0.000000 7.556729
RightHandThumb1 -24.326973 -0.000000 -32.862282
LeftUpLeg 5.749566 2.913957 6.552255
LeftLeg -12.493254 -0.000000 0.000000
LeftFoot 0.665775 23.591749 7.077998
LeftToeBase -143.684580 -0.000000 0.000000
RightUpLeg 1.694592 -9.931774 2.616682
RightLeg -2.323485 -0.000000 0.000000
RightFoot -19.838326 -23.364843 17.670390
RightToeBase 22.288208 -0.000000 -0.000000
1050
root 19.052697 35.552226 -21.842702 -175.838787 1.043087 -176.400004
Spine -14.384475 -1.849769 4.720536
Head 9.594909 1.459755 0.374670
LeftShoulder -15.058873 -32.169704 19.910697
LeftArm 2.324736 2.865234 -8.380482
LeftForeArm 10.139043 -0.000000 -3.024941
LeftHand -9.740879 -0.000000 -4.451790
LeftHandThumb1 -26.253704 0.000000 33.147579
RightShoulder -13.326498 -3.586768 -9.272288
RightArm 6.198228 38.790916 12.743705
RightForeArm -35.439988 -0.000000 4.483588
RightHand -7.583837 0.000000 7.645516
RightHandThumb1 -24.326973 -0.000000 -32.862282
LeftUpLeg 5.806874 2.895594 6.561599
LeftLeg -12.518071 -0.000000 0.000000
LeftFoot 0.655208 23.521222 7.085064
LeftToeBase -143.753957 -0.000000 0.000000
RightUpLeg 1.799849 -10.115674 2.606247
RightLeg -2.377915 -0.000000 0.000000
RightFoot -19.829887 -23.263683 17.745320
RightToeBase 22.275563 -0.000000 -0.000000
1051
root 19.050827 35.551576 -21.852203 -175.837993 1.005638 -176.407884
Spine -14.426192 -1.840468 4.684651
Head 9.652852 1.421934 0.407247
LeftShoulder -15.062445 -32.174800 19.901560
LeftArm 2.427265 2.953822 -8.335448
LeftForeArm 10.184409 -0.000000 -3.024355
LeftHand -9.742711 -0.000000 -4.413285
LeftHandThumb1 -26.253704 0.000000 33.147579
RightShoulder -13.334681 -3.594680 -9.297996
RightArm 6.222926 38.668614 12.665831
RightForeArm -35.449434 -0.000000 4.511582
RightHand -7.541390 -0.000000 7.543721
RightHandThumb1 -24.326973 -0.000000 -32.862282
LeftUpLeg 5.824254 2.896587 6.552704
LeftLeg -12.542612 -0.000000 0.000000
LeftFoot 0.653800 23.494678 7.060327
LeftToeBase -143.763036 -0.000000 0.000000
RightUpLeg 1.831347 -10.204629 2.588782
RightLeg -2.398992 -0.000000 0.000000
RightFoot -19.824297 -23.172047 17.842388
RightToeBase 22.109901 -0.000000 -0.000000
1052
root 19.049629 35.551178 -21.860568 -175.834805 0.983848 -176.414736
Spine -14.466369 -1.832960 4.652304
Head 9.714434 1.403034 0.425482
LeftShoulder -15.075690 -32.203183 19.899596
LeftArm 2.498010 3.051230 -8.276375
LeftForeArm 10.305990 0.000000 -3.010960
LeftHand -9.773776 -0.000000 -4.246275
LeftHandThumb1 -26.253704 0.000000 33.147579
RightShoulder -13.341963 -3.652943 -9.308462
RightArm 6.319522 38.708680 12.644648
RightForeArm -35.576452 -0.000000 4.525752
RightHand -7.615487 -0.000000 7.445357
RightHandThumb1 -24.326973 -0.000000 -32.862282
LeftUpLeg 5.835282 2.951459 6.544477
LeftLeg -12.560144 -0.000000 0.000000
LeftFoot 0.624839 23.439500 7.041309
LeftToeBase -143.840482 -0.000000 0.000000
RightUpLeg 1.854425 -10.247600 2.577300
RightLeg -2.415957 -0.000000 0.000000
RightFoot -19.841051 -23.159814 17.815259
RightToeBase 22.233676 -0.000000 -0.000000
1053
root 19.048287 35.550364 -21.868654 -175.826852 0.952840 -176.428036
Spine -14.512113 -1.830683 4.613189
Head 9.788150 1.372420 0.439491
LeftShoulder -15.094513 -32.191506 19.891946
LeftArm 2.594183 3.105629 -8.230063
LeftForeArm 10.343694 -0.000000 -3.002862
LeftHand -9.737227 0.000000 -4.217758
LeftHandThumb1 -26.253704 0.000000 33.147579
RightShoulder -13.359992 -3.722706 -9.323384
RightArm 6.447662 38.751098 12.641843
RightForeArm -35.639939 -0.000000 4.513448
RightHand -7.648904 0.000000 7.422815
RightHandThumb1 -24.326973 -0.000000 -32.862282
LeftUpLeg 5.839927 2.974647 6.530079
LeftLeg -12.575894 -0.000000 0.000000
LeftFoot 0.631000 23.391999 7.029066
LeftToeBase -143.824035 -0.000000 0.000000
RightUpLeg 1.869576 -10.320967 2.557882
RightLeg -2.426329 -0.000000 0.000000
RightFoot -19.851896 -23.117241 17.813227
RightToeBase 22.277845 -0.000000 -0.000000
1054
root 19.046936 35.549389 -21.875903 -175.821439 0.927063 -176.437519
Spine -14.547098 -1.829493 4.587764
Head 9.825436 1.358844 0.467789
LeftShoulder -15.128506 -32.160344 19.881913
LeftArm 2.693755 3.139771 -8.198486
LeftForeArm 10.253605 -0.000000 -2.982663
LeftHand -9.662158 -0.000000 -4.303331
LeftHandThumb1 -26.253704 0.000000 33.147579
RightShoulder -13.336439 -3.725242 -9.354240
RightArm 6.460758 38.640923 12.559549
RightForeArm -35.638033 -0.000000 4.529266
RightHand -7.637586 -0.000000 7.382606
RightHandThumb1 -24.326973 -0.000000 -32.862282
LeftUpLeg 5.845771 2.986915 6.518759
LeftLeg -12.590558 -0.000000 0.000000
LeftFoot 0.619896 23.381061 7.023668
LeftToeBase -143.884578 -0.000000 0.000000
RightUpLeg 1.879231 -10.399249 2.541639
RightLeg -2.427047 -0.000000 0.000000
RightFoot -19.858633 -23.054788 17.816176
RightToeBase 22.285111 -0.000000 -0.000000
1055
root 19.047017 35.548393 -21.884155 -175.814824 0.914159 -176.442401
Spine -14.591265 -1.811480 4.555370
Head 9.917595 1.307462 0.482446
LeftShoulder -15.160988 -32.118554 19.879255
LeftArm 2.794484 3.133356 -8.176226
LeftForeArm 10.304749 -0.000000 -2.963960
LeftHand -9.734253 -0.000000 -4.090220
LeftHandThumb1 -26.253704 0.000000 33.147579
RightShoulder -13.305803 -3.747855 -9.370533
RightArm 6.467445 38.557367 12.482231
RightForeArm -35.620175 -0.000000 4.520394
RightHand -7.528631 -0.000000 7.398138
RightHandThumb1 -24.326973 -0.000000 -32.862282
LeftUpLeg 5.856340 3.022479 6.516167
LeftLeg -12.606920 -0.000000 0.000000
LeftFoot 0.596162 23.336723 7.004911
LeftToeBase -143.910599 -0.000000 0.000000
RightUpLeg 1.892217 -10.445913 2.532753
RightLeg -2.433146 -0.000000 0.000000
RightFoot -19.868738 -23.003693 17.848149
RightToeBase 22.286530 -0.000000 -0.000000
1056
root 19.047524 35.547583 -21.892018 -175.806274 0.900718 -176.446914
Spine -14.635966 -1.794109 4.532235
Head 9.993448 1.267368 0.488179
LeftShoulder -15.205782 -32.123846 19.877327
LeftArm 2.899008 3.152978 -8.155129
LeftForeArm 10.196891 0.000000 -2.937302
LeftHand -9.742599 -0.000000 -4.144280
LeftHandThumb1 -26.253704 0.000000 33.147579
RightShoulder -13.282673 -3.748644 -9.399242
RightArm 6.485540 38.455253 12.411986
RightForeArm -35.616547 -0.000000 4.541645
RightHand -7.602610 -0.000000 7.320891
RightHandThumb1 -24.326973 -0.000000 -32.862282
LeftUpLeg 5.859825 3.063383 6.514035
LeftLeg -12.616173 -0.000000 0.000000
LeftFoot 0.592081 23.305341 6.998525
LeftToeBase -143.910811 -0.000000 0.000000
RightUpLeg 1.904699 -10.473026 2.525479
RightLeg -2.442364 -0.000000 0.000000
RightFoot -19.877094 -22.973752 17.858050
RightToeBase 22.299980 -0.000000 -0.000000
1057
root 19.048485 35.546943 -21.899480 -175.800769 0.898532 -176.450988
Spine -14.673519 -1.761897 4.506119
Head 10.071024 1.214602 0.510124
LeftShoulder -15.259701 -32.102243 19.868563
LeftArm 3.021305 3.135631 -8.134730
LeftForeArm 10.190466 -0.000000 -2.927318
LeftHand -9.741330 0.000000 -4.116520
LeftHandThumb1 -26.253704 0.000000 33.147579
RightShoulder -13.255324 -3.754540 -9.413506
RightArm 6.501063 38.409153 12.340108
RightForeArm -35.629044 -0.000000 4.538975
RightHand -7.599833 -0.000000 7.281288
RightHandThumb1 -24.326973 -0.000000 -32.862282
LeftUpLeg 5.872241 3.094615 6.511347
LeftLeg -12.625292 -0.000000 0.000000
LeftFoot 0.576815 23.261957 6.994691
LeftToeBase -143.929191 -0.000000 0.000000
RightUpLeg 1.916631 -10.483867 2.517730
RightLeg -2.446579 -0.000000 0.000000
RightFoot -19.893717 -22.953238 17.867306
RightToeBase 22.338577 -0.000000 -0.000000
1058
root 19.048600 35.546213 -21.904198 -175.795867 0.929650 -176.452352
Spine -14.696917 -1.695024 4.485055
Head 10.161782 1.168885 0.493884
LeftShoulder -15.306593 -32.119578 19.848211
LeftArm 3.130538 3.078774 -8.097975
LeftForeArm 10.273866 0.000000 -2.920819
LeftHand -9.726717 -0.000000 -4.146600
LeftHandThumb1 -26.253704 0.000000 33.147579
RightShoulder -13.232447 -3.740481 -9.435133
RightArm 6.532451 38.361952 12.280854
RightForeArm -35.569599 -0.000000 4.533250
RightHand -7.594300 -0.000000 7.275631
RightHandThumb1 -24.326973 -0.000000 -32.862282
LeftUpLeg 5.884244 3.145313 6.508838
LeftLeg -12.627365 -0.000000 0.000000
LeftFoot 0.562556 23.241500 6.990049
LeftToeBase -143.933116 -0.000000 0.000000
RightUpLeg 1.908717 -10.466723 2.511011
RightLeg -2.428153 -0.000000 0.000000
RightFoot -19.907920 -22.926904 17.889837
RightToeBase 22.285553 -0.000000 -0.000000
